<svg width="244" height="102" viewBox="0 0 244 102" fill="none" xmlns="http://www.w3.org/2000/svg"><path d="M22 76.75c11.598 0 21-9.402 21-21s-9.402-21-21-21-21 9.402-21 21 9.402 21 21 21z" fill="#F5F5F5" stroke="#fff" stroke-width="2"/><path fill-rule="evenodd" clip-rule="evenodd" d="M27.081 49.083h-9.329c-.421 0-.752.319-.752.724v12.737c0 .29.15.52.421.637.271.115.572.086.783-.087l4.213-3.184 4.213 3.184c.12.115.3.145.451.145.12 0 .21-.03.331-.087a.693.693 0 00.421-.637V49.778c0-.376-.33-.695-.752-.695zM17 48.25h10.833v-1.667H17v1.667z" fill="#DADBDD"/><path d="M222 75.25c11.598 0 21-9.402 21-21s-9.402-21-21-21-21 9.402-21 21 9.402 21 21 21z" fill="#F5F5F5" stroke="#fff" stroke-width="2"/><path fill-rule="evenodd" clip-rule="evenodd" d="M228.461 44.25l-6.585 11.667h3.293v8.333l6.584-11.666h-3.292V44.25zM212 55.917h8.23V54.25H212v1.667zm1.646-3.333h8.231v-1.667h-8.231v1.667zm3.292-3.334h6.585v-1.666h-6.585v1.666z" fill="#DADBDD"/><path fill-rule="evenodd" clip-rule="evenodd" d="M213.646 59.25h9.877v-1.666h-9.877v1.666z" fill="#DADBDD"/><path d="M66 86.75c18.501 0 33.5-14.999 33.5-33.5 0-18.502-14.999-33.5-33.5-33.5-18.502 0-33.5 14.998-33.5 33.5 0 18.501 14.998 33.5 33.5 33.5z" fill="#EFEFF0" stroke="#fff" stroke-width="3"/><path fill-rule="evenodd" clip-rule="evenodd" d="M57.042 56.442h-3.936c-.98 0-1.773.802-1.773 1.793v6.186c0 .99.794 1.793 1.773 1.793h3.936c.98 0 1.774-.803 1.774-1.793V58.24c0-.99-.794-1.793-1.774-1.793h-.016l.016-.004zm12.44 7.98V41.71c0-.99-.793-1.793-1.773-1.793h-3.936c-.98 0-1.773.802-1.773 1.792v22.712c0 .99.794 1.793 1.773 1.793h3.936c.98 0 1.774-.803 1.774-1.793z" fill="#DADBDD"/><path d="M178 86.5c18.502 0 33.5-14.999 33.5-33.5 0-18.502-14.998-33.5-33.5-33.5-18.502 0-33.5 14.998-33.5 33.5 0 18.501 14.998 33.5 33.5 33.5z" fill="#EFEFF0" stroke="#fff" stroke-width="3"/><mask id="a" maskUnits="userSpaceOnUse" x="162" y="39" width="32" height="21"><path fill-rule="evenodd" clip-rule="evenodd" d="M162 39.667h31.477v20.227H162V39.667z" fill="#fff"/></mask><g mask="url(#a)"><path fill-rule="evenodd" clip-rule="evenodd" d="M190.996 44.22a2.406 2.406 0 00-2.416 2.406c0 .65.261 1.236.653 1.691L184.4 53l-5.093-8.065c.783-.52 1.371-1.43 1.371-2.407 0-1.56-1.307-2.861-2.874-2.861-1.567 0-2.873 1.3-2.873 2.861 0 1.041.522 1.887 1.371 2.407L171.078 53l-4.898-4.748c.391-.455.653-1.04.653-1.69a2.406 2.406 0 00-2.417-2.407 2.406 2.406 0 100 4.813c.131 0 .262 0 .457-.066l2.286 10.992h21.159l2.286-10.991c.131 0 .261.065.458.065a2.406 2.406 0 002.416-2.407 2.452 2.452 0 00-2.482-2.341z" fill="#DADBDD"/></g><mask id="b" maskUnits="userSpaceOnUse" x="166" y="61" width="24" height="6"><path fill-rule="evenodd" clip-rule="evenodd" d="M166.18 61.26h23.118v5.073H166.18V61.26z" fill="#fff"/></mask><g mask="url(#b)"><path fill-rule="evenodd" clip-rule="evenodd" d="M167.421 61.26l-1.241 5.074h23.118l-1.241-5.074h-20.636z" fill="#DADBDD"/></g><path d="M122 100.5c27.338 0 49.5-22.162 49.5-49.5S149.338 1.5 122 1.5 72.5 23.662 72.5 51s22.162 49.5 49.5 49.5z" fill="#EFEFF0" stroke="#fff" stroke-width="3"/><mask id="c" maskUnits="userSpaceOnUse" x="108" y="29" width="38" height="23"><path fill-rule="evenodd" clip-rule="evenodd" d="M108.349 29.628h37.028v22.074h-37.028V29.629z" fill="#fff"/></mask><g mask="url(#c)"><path fill-rule="evenodd" clip-rule="evenodd" d="M142.857 30.393l-9.868-.754c-1.036-.109-1.335.642-1.444 1.678l-.002.02a1.949 1.949 0 001.76 2.073l5.217.44-9.491 8.863-5.532-4.903a1.822 1.822 0 00-2.577-.063l-.063.063-11.754 10.497a1.886 1.886 0 102.64 2.64l10.434-9.114 5.532 4.84c.335.375.817.582 1.32.566a1.82 1.82 0 001.32-.566L141.16 36.49l.44 5.218a1.886 1.886 0 001.886 1.76h.188a1.948 1.948 0 001.697-2.075l-.754-9.303a1.886 1.886 0 00-1.76-1.697z" fill="#DADBDD"/></g><path fill-rule="evenodd" clip-rule="evenodd" d="M142.857 68.736h-35.828a1.384 1.384 0 01-1.258-1.383V34.668a1.885 1.885 0 10-3.771 0v32.685a5.154 5.154 0 005.029 5.154h35.828a1.886 1.886 0 100-3.77z" fill="#DADBDD"/><path fill-rule="evenodd" clip-rule="evenodd" d="M140.047 45.67c.047-.945-1.001-1.23-1.63-1.22-.823.075-1.374.832-2.385 1.583l-7.202 6.61-5.084-5.083a2.352 2.352 0 00-1.844-.696c-.696.049-1.115.373-1.745.958l-11.176 10.03a2.353 2.353 0 00-.469 1.418v4.511a2.373 2.373 0 002.369 2.37h26.843a2.372 2.372 0 002.37-2.37l-.047-18.11z" fill="#DADBDD"/></svg>